<svg width="32" height="29" viewBox="0 0 32 29" xmlns="http://www.w3.org/2000/svg" xmlns:xlink="http://www.w3.org/1999/xlink">
  <defs>
    <linearGradient x1="50%" y1="0%" x2="50%" y2="100%" id="b">
      <stop stop-color="#FFF" stop-opacity=".5" offset="0%"/>
      <stop stop-color="#003459" offset="100%"/>
    </linearGradient>
    <path d="M16.3239507 23.6054565l3.0274601 3.7695047-.5205372 1.2842182h-7.5329937l.184735-1.2842182-1.77584219-2.7741288.78638479-.9953759h5.8307932zm1.4534002-16.88710116L32 23.5437877l-1.1051107 5.1153335h-6.0956706l.3794634-1.4413982-13.2901452-15.726046 2.7238699-4.76856746 3.1649441-.0047542zM11.1563792 12.458741l6.1430185 7.2910142-1.7442121 2.6709916H9.89098371l-3.91863149 5.0718664-.89495535 1.1665274H0v-6.2229669l4.73257127-6.0099978h1.79563516l4.62817277-3.9674349zM20.2589212 0l6.581764 5.20838014-.842368.8754534 1.1411069 1.60003347v1.7111267l-3.2813736 2.69301609-5.5182769-6.56400848h-3.2127771l1.2936296-2.38719444L20.2589212 0z" id="a"/>
  </defs>
  <g fill="none" fill-rule="evenodd">
    <use fill="#FFF" xlink:href="#a"/>
    <path stroke="#FFF" d="M16.0842274 24.1054565h-5.3488762l-.415418.5258203 1.6840713 2.630769-.1290528.8971336h6.6190762l.2837313-.6999939-2.6935318-3.353729zm1.4613687-16.88675247l-2.6427249.00396976-2.4067252 4.21335511 13.2322557 15.6575462-.2805164 1.0655461h5.0434882l.9679493-4.4804409L17.5455961 7.21870403zm-6.4466633 5.94785117l-4.38574912 3.7596207H4.97525764L.5 22.6094054v5.5497352h4.33079918l.74589023-.9722248 4.06875375-5.266169h5.63908534l1.3929683-2.133116-5.578564-6.6210756zM20.2639675.64160822l-3.4506697 2.82002403-.8466536 1.56236907h2.606l5.3501623 6.36403558 2.7166176-2.2295221V7.84389705l-1.289182-1.80766101.7482093-.77759655L20.2639675.64160822z" stroke-linejoin="square" fill-opacity=".25" fill="url(#b)"/>
  </g>
</svg>
