<svg width="49" height="13" viewBox="0 0 49 13" xmlns="http://www.w3.org/2000/svg">
  <path d="M2.934 12.6V7.254h.81l3.78 5.346h3.456L6.102 5.922 10.782 0H7.524L3.708 5.022h-.774V0H0v12.6h2.934zm12.456 0V7.326h5.112V12.6h2.952V0h-2.952v4.968H15.39V0h-2.934v12.6h2.934zm17.73 0c1.26 0 1.818-.18 2.268-.612.666-.63.954-1.548 1.026-4.086h-2.826c-.054 1.746-.216 2.052-.36 2.196-.126.108-.288.18-.864.162h-2.34c-.576 0-.738-.054-.864-.162-.1570909-.1570909-.3818843-.5680661-.3953639-3.514294L28.764 6.3c0-3.204.234-3.654.396-3.798.126-.126.288-.18.864-.18h2.34c.576 0 .738.054.864.18.144.144.306.486.36 2.052h2.808c-.036-2.358-.342-3.312-1.008-3.942C34.938.18 34.38 0 33.12 0h-3.852C28.026 0 27.45.18 27 .612c-.72.666-1.242 1.818-1.242 5.688 0 3.852.522 5.004 1.242 5.688.45.432 1.026.612 2.268.612h3.852zm8.406 0V8.316h3.996c1.026 0 1.71-.144 2.142-.522.558-.504 1.08-1.332 1.08-3.618 0-2.34-.504-3.15-1.08-3.672C47.232.126 46.548 0 45.522 0h-6.93v12.6h2.934zm3.000979-6.5887708L41.526 6.012V2.286h2.844c.666 0 .864.054.99.162.18.162.36.468.36 1.692s-.162 1.548-.36 1.728c-.1155.099-.2915.1375-.833021.1432292z" fill="#FFF" fill-rule="nonzero"/>
</svg>
